<?xml version="1.0" encoding="UTF-8"?>
<svg width="681px" height="423px" viewBox="0 0 681 423" version="1.1" xmlns="http://www.w3.org/2000/svg" xmlns:xlink="http://www.w3.org/1999/xlink">
    <!-- Generator: Sketch 60.1 (88133) - https://sketch.com -->
    <title>2</title>
    <desc>Created with Sketch.</desc>
    <defs>
        <path d="M627.374303,225.059402 C598.074897,246.848241 556.522489,263.737244 588.540267,320.255697 C620.558046,376.77415 499.431756,422.433928 431.288473,422.433928 C363.14519,422.433928 227.205311,397.366585 123.287643,340.921313 C19.3699747,284.476041 -20.5680369,243.380455 10.0149649,131.482749 C40.5979666,19.5850424 188.542943,20.5814505 248.669376,71.0197024 C308.79581,121.457954 369.668513,80.7230749 414.484499,45.5309391 C459.300485,10.3388033 518.288665,-15.1763411 590.093425,10.3388033 C661.898185,35.8539477 682.783038,91.0800055 675.637055,138.329037 C668.491072,185.578069 656.67371,203.270563 627.374303,225.059402 Z" id="path-1"></path>
        <path d="M2.27682454,20.545191 L88.4263328,0.568527772 C89.5023523,0.319016442 90.5769073,0.989033664 90.8264186,2.06505312 C90.8607695,2.21319153 90.878113,2.36476438 90.878113,2.51683335 L90.878113,73.4830824 C90.878113,74.4633998 90.1675625,75.2992163 89.200027,75.4570053 L3.05051875,89.5065567 C1.96035126,89.6843449 0.932470107,88.9447154 0.754681928,87.8545479 C0.737325584,87.7481217 0.728604772,87.6404661 0.728604772,87.5326339 L0.728604772,22.4934966 C0.728604772,21.5629758 1.3703551,20.7553865 2.27682454,20.545191 Z" id="path-3"></path>
        <path d="M6.7012838,7.63524148 L74.7048642,0.105843044 C77.1485837,-0.164727091 79.0738222,1.65345861 79.0050046,4.16687446 L77.7599459,53.6400006 C77.6911284,56.1534164 75.6543146,58.410283 73.2105951,58.6808531 L5.20701467,62.2102516 C2.76329515,62.4808217 0.838056727,60.662636 0.9068743,58.1492201 L2.15193295,12.676094 C2.22075052,10.1626782 4.25756428,7.90581161 6.7012838,7.63524148 Z" id="path-5"></path>
        <path d="M97.364067,19.3531616 C101.136808,18.915599 104.281127,15.2742129 104.387101,11.2198982 C104.493074,7.1655835 101.520572,4.23362665 97.7478313,4.67118929 C93.9750904,5.10875193 90.8307711,8.75013799 90.7247974,12.8044527 C90.6188238,16.8587674 93.5913261,19.7907242 97.364067,19.3531616 Z" id="path-7"></path>
        <path d="M75.5,181.897044 C116.411671,181.897044 149.723117,142.67613 150.964298,93.7281658 C150.9719,93.424847 124.185967,92.4811398 70.6064967,90.8970441 C71.8524081,30.276106 72.2673926,-0.022908698 71.8514502,1.42108547e-14 C31.8483985,2.29556938 -7.10542736e-14,42.1134466 -7.10542736e-14,90.8970441 C-7.10542736e-14,141.154956 33.8025014,181.897044 75.5,181.897044 Z" id="path-9"></path>
    </defs>
    <g id="页面-1" stroke="none" stroke-width="1" fill="none" fill-rule="evenodd">
        <g id="画板" transform="translate(-1335.000000, -1272.000000)">
            <g id="2" transform="translate(1325.332298, 1271.000000)">
                <g id="编组-70" transform="translate(13.699515, 1.244303)">
                    <mask id="mask-2" fill="white">
                        <use xlink:href="#path-1"></use>
                    </mask>
                    <use id="路径-255" fill="#F3F7FF" xlink:href="#path-1"></use>
                    <rect id="矩形" fill="#D0DEFE" mask="url(#mask-2)" x="23.3004853" y="321.755697" width="631" height="162"></rect>
                    <rect id="矩形" fill="#C4D6FF" mask="url(#mask-2)" x="23.3004853" y="321.755697" width="631" height="19"></rect>
                </g>
                <g id="编组-69" transform="translate(244.000000, 63.000000) rotate(-16.000000) translate(-244.000000, -63.000000) translate(190.000000, 39.000000)">
                    <path d="M11.7739999,0.263164868 L106.292563,0.263164868 C106.819848,0.263164868 107.120597,0.68607161 106.964305,1.20775351 L96.7766055,35.2129448 C96.6203135,35.7346267 96.0661653,36.1575334 95.5388808,36.1575334 L34.2216784,36.1575334 L16.3191333,47.2631649 L13.9373344,36.1575334 L1.02031727,36.1575334 C0.493032811,36.1575334 0.192283979,35.7346267 0.348575951,35.2129448 L10.5362753,1.20775351 C10.6925673,0.68607161 11.2467155,0.263164868 11.7739999,0.263164868 Z" id="矩形" fill="#C9DCFF"></path>
                    <path d="M20.7535102,27.7593798 C26.2278589,27.7593798 31.9954338,23.2822273 33.6357493,17.7593798 C35.2760649,12.2365323 32.1679669,7.75937976 26.6936182,7.75937976 C21.2192695,7.75937976 15.4516945,12.2365323 13.811379,17.7593798 C12.1710635,23.2822273 15.2791615,27.7593798 20.7535102,27.7593798 Z" id="椭圆形" fill="#FFBB3C"></path>
                    <path d="M92.9084867,9.8756498 C93.4607403,9.86978621 93.9131837,10.3127228 93.9191048,10.8649765 C93.924492,11.3777834 93.5429611,11.8045295 93.0462637,11.8675716 L92.9297206,11.8755371 L46.6651038,12.3667549 C46.1128502,12.3726185 45.6604068,11.9296819 45.6544857,11.3774283 C45.6490984,10.8646213 46.0306294,10.4378753 46.5273268,10.3748332 L46.6438699,10.3668677 L92.9084867,9.8756498 Z" id="路径-257" fill="#FFFFFF" fill-rule="nonzero"></path>
                    <path d="M44.4536204,18.0620987 L90.501893,18.3253626 C91.0541688,18.32852 91.4993171,18.7787875 91.4961764,19.3310633 C91.4932278,19.8438907 91.1047775,20.2643481 90.6071167,20.319269 L90.490459,20.3253299 L44.4421863,20.062066 C43.8899106,20.0589086 43.4447623,19.608641 43.447903,19.0563653 C43.4508516,18.5435378 43.8393019,18.1230804 44.3369627,18.0681596 L44.4536204,18.0620987 Z" id="路径-258" fill="#FFFFFF" fill-rule="nonzero"></path>
                    <path d="M42.1394744,26.199122 L87.938213,27.3326146 C88.4903287,27.3462791 88.9268296,27.8049346 88.9134773,28.3570503 C88.9004765,28.8697291 88.5040968,29.2827197 88.0054812,29.3281621 L87.8887293,29.3320023 L42.0899907,28.1985097 C41.5378751,28.1848452 41.1013742,27.7261897 41.1147265,27.174074 C41.1277272,26.6613951 41.5241069,26.2484046 42.0227226,26.2029622 L42.1394744,26.199122 Z" id="路径-259" fill="#FFFFFF" fill-rule="nonzero"></path>
                    <path d="M32.1354764,12.0723519 C32.3365787,11.8831101 32.6530152,11.8927249 32.842257,12.0938272 C33.010472,12.2725848 33.0215656,12.5424707 32.8807136,12.733149 L32.8207817,12.8006078 L20.5235937,24.3725408 L15.4725834,16.6757978 C15.3210756,16.4449298 15.3854097,16.1349531 15.6162777,15.9834453 C15.8214936,15.8487717 16.0892153,15.8846399 16.2525842,16.0564192 L16.3086301,16.1271396 L20.706,22.828 L32.1354764,12.0723519 Z" id="路径-284" fill="#FFFFFF" fill-rule="nonzero"></path>
                </g>
                <g id="编组-69" transform="translate(134.000000, 124.000000) rotate(-16.000000) translate(-134.000000, -124.000000) translate(80.000000, 100.000000)">
                    <path d="M11.7739999,0.263164868 L106.292563,0.263164868 C106.819848,0.263164868 107.120597,0.68607161 106.964305,1.20775351 L96.7766055,35.2129448 C96.6203135,35.7346267 96.0661653,36.1575334 95.5388808,36.1575334 L34.2216784,36.1575334 L16.3191333,47.2631649 L13.9373344,36.1575334 L1.02031727,36.1575334 C0.493032811,36.1575334 0.192283979,35.7346267 0.348575951,35.2129448 L10.5362753,1.20775351 C10.6925673,0.68607161 11.2467155,0.263164868 11.7739999,0.263164868 Z" id="矩形" fill="#C9DCFF"></path>
                    <path d="M20.7535102,27.7593798 C26.2278589,27.7593798 31.9954338,23.2822273 33.6357493,17.7593798 C35.2760649,12.2365323 32.1679669,7.75937976 26.6936182,7.75937976 C21.2192695,7.75937976 15.4516945,12.2365323 13.811379,17.7593798 C12.1710635,23.2822273 15.2791615,27.7593798 20.7535102,27.7593798 Z" id="椭圆形" fill="#FFBB3C"></path>
                    <path d="M92.9084867,9.8756498 C93.4607403,9.86978621 93.9131837,10.3127228 93.9191048,10.8649765 C93.924492,11.3777834 93.5429611,11.8045295 93.0462637,11.8675716 L92.9297206,11.8755371 L46.6651038,12.3667549 C46.1128502,12.3726185 45.6604068,11.9296819 45.6544857,11.3774283 C45.6490984,10.8646213 46.0306294,10.4378753 46.5273268,10.3748332 L46.6438699,10.3668677 L92.9084867,9.8756498 Z" id="路径-257" fill="#FFFFFF" fill-rule="nonzero"></path>
                    <path d="M44.4536204,18.0620987 L90.501893,18.3253626 C91.0541688,18.32852 91.4993171,18.7787875 91.4961764,19.3310633 C91.4932278,19.8438907 91.1047775,20.2643481 90.6071167,20.319269 L90.490459,20.3253299 L44.4421863,20.062066 C43.8899106,20.0589086 43.4447623,19.608641 43.447903,19.0563653 C43.4508516,18.5435378 43.8393019,18.1230804 44.3369627,18.0681596 L44.4536204,18.0620987 Z" id="路径-258" fill="#FFFFFF" fill-rule="nonzero"></path>
                    <path d="M42.1394744,26.199122 L87.938213,27.3326146 C88.4903287,27.3462791 88.9268296,27.8049346 88.9134773,28.3570503 C88.9004765,28.8697291 88.5040968,29.2827197 88.0054812,29.3281621 L87.8887293,29.3320023 L42.0899907,28.1985097 C41.5378751,28.1848452 41.1013742,27.7261897 41.1147265,27.174074 C41.1277272,26.6613951 41.5241069,26.2484046 42.0227226,26.2029622 L42.1394744,26.199122 Z" id="路径-259" fill="#FFFFFF" fill-rule="nonzero"></path>
                </g>
                <g id="编组-69" transform="translate(98.000000, 116.000000) rotate(-16.000000) translate(-98.000000, -116.000000) translate(44.000000, 92.000000)">
                    <path d="M11.7739999,0.263164868 L106.292563,0.263164868 C106.819848,0.263164868 107.120597,0.68607161 106.964305,1.20775351 L96.7766055,35.2129448 C96.6203135,35.7346267 96.0661653,36.1575334 95.5388808,36.1575334 L34.2216784,36.1575334 L16.3191333,47.2631649 L13.9373344,36.1575334 L1.02031727,36.1575334 C0.493032811,36.1575334 0.192283979,35.7346267 0.348575951,35.2129448 L10.5362753,1.20775351 C10.6925673,0.68607161 11.2467155,0.263164868 11.7739999,0.263164868 Z" id="矩形" fill="#C9DCFF"></path>
                    <path d="M20.7535102,27.7593798 C26.2278589,27.7593798 31.9954338,23.2822273 33.6357493,17.7593798 C35.2760649,12.2365323 32.1679669,7.75937976 26.6936182,7.75937976 C21.2192695,7.75937976 15.4516945,12.2365323 13.811379,17.7593798 C12.1710635,23.2822273 15.2791615,27.7593798 20.7535102,27.7593798 Z" id="椭圆形" fill="#FFBB3C"></path>
                    <path d="M92.9084867,9.8756498 C93.4607403,9.86978621 93.9131837,10.3127228 93.9191048,10.8649765 C93.924492,11.3777834 93.5429611,11.8045295 93.0462637,11.8675716 L92.9297206,11.8755371 L46.6651038,12.3667549 C46.1128502,12.3726185 45.6604068,11.9296819 45.6544857,11.3774283 C45.6490984,10.8646213 46.0306294,10.4378753 46.5273268,10.3748332 L46.6438699,10.3668677 L92.9084867,9.8756498 Z" id="路径-257" fill="#FFFFFF" fill-rule="nonzero"></path>
                    <path d="M44.4536204,18.0620987 L90.501893,18.3253626 C91.0541688,18.32852 91.4993171,18.7787875 91.4961764,19.3310633 C91.4932278,19.8438907 91.1047775,20.2643481 90.6071167,20.319269 L90.490459,20.3253299 L44.4421863,20.062066 C43.8899106,20.0589086 43.4447623,19.608641 43.447903,19.0563653 C43.4508516,18.5435378 43.8393019,18.1230804 44.3369627,18.0681596 L44.4536204,18.0620987 Z" id="路径-258" fill="#FFFFFF" fill-rule="nonzero"></path>
                    <path d="M42.1394744,26.199122 L87.938213,27.3326146 C88.4903287,27.3462791 88.9268296,27.8049346 88.9134773,28.3570503 C88.9004765,28.8697291 88.5040968,29.2827197 88.0054812,29.3281621 L87.8887293,29.3320023 L42.0899907,28.1985097 C41.5378751,28.1848452 41.1013742,27.7261897 41.1147265,27.174074 C41.1277272,26.6613951 41.5241069,26.2484046 42.0227226,26.2029622 L42.1394744,26.199122 Z" id="路径-259" fill="#FFFFFF" fill-rule="nonzero"></path>
                </g>
                <g id="编组-69" transform="translate(59.000000, 108.000000) rotate(-16.000000) translate(-59.000000, -108.000000) translate(5.000000, 84.000000)">
                    <path d="M11.7739999,0.263164868 L106.292563,0.263164868 C106.819848,0.263164868 107.120597,0.68607161 106.964305,1.20775351 L96.7766055,35.2129448 C96.6203135,35.7346267 96.0661653,36.1575334 95.5388808,36.1575334 L34.2216784,36.1575334 L16.3191333,47.2631649 L13.9373344,36.1575334 L1.02031727,36.1575334 C0.493032811,36.1575334 0.192283979,35.7346267 0.348575951,35.2129448 L10.5362753,1.20775351 C10.6925673,0.68607161 11.2467155,0.263164868 11.7739999,0.263164868 Z" id="矩形" fill="#C9DCFF"></path>
                    <path d="M20.7535102,27.7593798 C26.2278589,27.7593798 31.9954338,23.2822273 33.6357493,17.7593798 C35.2760649,12.2365323 32.1679669,7.75937976 26.6936182,7.75937976 C21.2192695,7.75937976 15.4516945,12.2365323 13.811379,17.7593798 C12.1710635,23.2822273 15.2791615,27.7593798 20.7535102,27.7593798 Z" id="椭圆形" fill="#FFBB3C"></path>
                    <path d="M92.9084867,9.8756498 C93.4607403,9.86978621 93.9131837,10.3127228 93.9191048,10.8649765 C93.924492,11.3777834 93.5429611,11.8045295 93.0462637,11.8675716 L92.9297206,11.8755371 L46.6651038,12.3667549 C46.1128502,12.3726185 45.6604068,11.9296819 45.6544857,11.3774283 C45.6490984,10.8646213 46.0306294,10.4378753 46.5273268,10.3748332 L46.6438699,10.3668677 L92.9084867,9.8756498 Z" id="路径-257" fill="#FFFFFF" fill-rule="nonzero"></path>
                    <path d="M44.4536204,18.0620987 L90.501893,18.3253626 C91.0541688,18.32852 91.4993171,18.7787875 91.4961764,19.3310633 C91.4932278,19.8438907 91.1047775,20.2643481 90.6071167,20.319269 L90.490459,20.3253299 L44.4421863,20.062066 C43.8899106,20.0589086 43.4447623,19.608641 43.447903,19.0563653 C43.4508516,18.5435378 43.8393019,18.1230804 44.3369627,18.0681596 L44.4536204,18.0620987 Z" id="路径-258" fill="#FFFFFF" fill-rule="nonzero"></path>
                    <path d="M42.1394744,26.199122 L87.938213,27.3326146 C88.4903287,27.3462791 88.9268296,27.8049346 88.9134773,28.3570503 C88.9004765,28.8697291 88.5040968,29.2827197 88.0054812,29.3281621 L87.8887293,29.3320023 L42.0899907,28.1985097 C41.5378751,28.1848452 41.1013742,27.7261897 41.1147265,27.174074 C41.1277272,26.6613951 41.5241069,26.2484046 42.0227226,26.2029622 L42.1394744,26.199122 Z" id="路径-259" fill="#FFFFFF" fill-rule="nonzero"></path>
                </g>
                <path d="M208.281913,94.5591596 L570.187665,2.84120355 C575.005905,1.62011459 579.901748,4.53618161 581.122837,9.35442151 C581.305997,10.0771449 581.398642,10.8198272 581.398642,11.5653986 L581.398642,88.8194384 L581.398642,88.8194384 L581.398642,357.935425 C581.398642,362.905988 577.369205,366.935425 572.398642,366.935425 L210.49289,366.935425 C205.522327,366.935425 201.49289,362.905988 201.49289,357.935425 L201.49289,103.283355 C201.49289,99.1643675 204.289152,95.571047 208.281913,94.5591596 Z" id="路径-256" fill="#6EA0FD"></path>
                <path d="M197.281913,97.5591596 L559.187665,5.84120355 C564.005905,4.62011459 568.901748,7.53618161 570.122837,12.3544215 C570.305997,13.0771449 570.398642,13.8198272 570.398642,14.5653986 L570.398642,357.935425 C570.398642,362.905988 566.369205,366.935425 561.398642,366.935425 L199.49289,366.935425 C194.522327,366.935425 190.49289,362.905988 190.49289,357.935425 L190.49289,106.283355 C190.49289,102.164367 193.289152,98.571047 197.281913,97.5591596 Z" id="路径-256" fill="#A4C3FC"></path>
                <path d="M210.827672,110.603829 L543.827672,27.7788232 C548.651271,26.5790796 553.534155,29.516795 554.733899,34.3403942 C554.910639,35.0509824 555,35.780484 555,36.5127222 L555,346 C555,350.970563 550.970563,355 546,355 L213,355 C208.029437,355 204,350.970563 204,346 L204,119.337728 C204,115.203888 206.816056,111.601614 210.827672,110.603829 Z" id="路径-256" fill="#FFFFFF"></path>
                <path d="M226.863457,130.161357 L336.286062,104.713349 C338.437778,104.212933 340.587755,105.551575 341.088171,107.70329 C341.157261,108.000367 341.192146,108.30437 341.192146,108.609375 L341.192146,337.161932 C341.192146,339.320917 339.478843,341.09032 337.320979,341.159857 L227.898374,344.685985 C225.690381,344.757138 223.842769,343.024886 223.771617,340.816893 C223.770233,340.773963 223.769541,340.731013 223.769541,340.688061 L223.769541,134.057382 C223.769541,132.197309 225.051735,130.582703 226.863457,130.161357 Z" id="路径-264" fill="#FFDA92"></path>
                <path d="M224.863457,128.161357 L334.286062,102.713349 C336.437778,102.212933 338.587755,103.551575 339.088171,105.70329 C339.157261,106.000367 339.192146,106.30437 339.192146,106.609375 L339.192146,335.161932 C339.192146,337.320917 337.478843,339.09032 335.320979,339.159857 L225.898374,342.685985 C223.690381,342.757138 221.842769,341.024886 221.771617,338.816893 C221.770233,338.773963 221.769541,338.731013 221.769541,338.688061 L221.769541,132.057382 C221.769541,130.197309 223.051735,128.582703 224.863457,128.161357 Z" id="路径-264" fill="#DDE9FF"></path>
                <path d="M237.705186,273.181315 L323.854694,260.342008 C324.947197,260.179187 325.964839,260.932843 326.12766,262.025346 C326.142206,262.122944 326.149508,262.221484 326.149508,262.32016 L326.149508,314.92859 C326.149508,315.984141 325.3292,316.857972 324.275754,316.924602 L238.126246,322.37349 C237.023879,322.443213 236.073712,321.606091 236.003988,320.503724 C236.00133,320.461695 236,320.419592 236,320.377478 L236,275.159467 C236,274.168758 236.7253,273.327353 237.705186,273.181315 Z" id="路径-265" fill="#ECF3FF"></path>
                <g id="编组-97" transform="translate(235.000000, 118.816663)">
                    <mask id="mask-4" fill="white">
                        <use xlink:href="#path-3"></use>
                    </mask>
                    <use id="路径-265" fill="#FFFFFF" xlink:href="#path-3"></use>
                    <polygon id="路径-5" fill="#D9E4FF" mask="url(#mask-4)" points="47.3171225 74.5162538 63.4598789 51.0521983 94 80.8691234 47 86.0521983"></polygon>
                    <polygon id="路径-5" fill="#BCD1FF" mask="url(#mask-4)" points="-2.50697349 78.0995905 23.3102954 44.0521983 70 87.9938946 -3 96.0521983"></polygon>
                    <path d="M83.3364832,21.2225907 C90.3430227,20.4758171 96.1819039,14.2817944 96.3779895,7.38785381 C96.5740751,0.493913178 91.0531114,-4.48935033 84.0465719,-3.74257676 C77.0400325,-2.99580318 71.2011512,3.19821951 71.0050656,10.0921601 C70.80898,16.9861008 76.3299437,21.9693643 83.3364832,21.2225907 Z" id="椭圆形" fill="#FFE17F" mask="url(#mask-4)"></path>
                </g>
                <g id="编组-117" transform="translate(157.000000, 206.000000)">
                    <path d="M3.37720306,26.3718781 L153.377203,2.72865221 C155.559401,2.38469096 157.607257,3.87487585 157.951218,6.05707331 C157.98369,6.26308315 158,6.47131701 158,6.67987025 L158,41.3397408 C158,43.3291133 156.538039,45.0161467 154.568889,45.2990798 L4.56888898,66.8515022 C2.38220643,67.1656909 0.354849705,65.6477347 0.0406609981,63.4610521 C0.013588198,63.2726315 1.01314139e-14,63.0825187 0,62.8921631 L0,30.3230961 C-1.1014728e-15,28.3543979 1.43251414,26.6784029 3.37720306,26.3718781 Z" id="路径-265" fill="#FFEDCC"></path>
                    <path d="M5.37720306,24.3718781 L155.377203,0.728652213 C157.559401,0.384690963 159.607257,1.87487585 159.951218,4.05707331 C159.98369,4.26308315 160,4.47131701 160,4.67987025 L160,39.3397408 C160,41.3291133 158.538039,43.0161467 156.568889,43.2990798 L6.56888898,64.8515022 C4.38220643,65.1656909 2.3548497,63.6477347 2.040661,61.4610521 C2.0135882,61.2726315 2,61.0825187 2,60.8921631 L2,28.3230961 C2,26.3543979 3.43251414,24.6784029 5.37720306,24.3718781 Z" id="路径-265" fill="#C9DCFF"></path>
                    <path d="M43.3647021,23 C40.8046924,23 38.7294043,25.098193 38.7294043,27.686376 C38.7294043,29.5009791 39.7495781,31.0745874 41.2416465,31.8532086 L35.8211465,42.4270991 C35.4259352,42.4539525 35.0357848,42.5321131 34.6603076,42.6596553 L27.162749,37.4495712 C27.7342617,36.670329 28.0724287,35.7057286 28.0724287,34.6611254 C28.0724287,32.0729059 25.9971045,29.9747493 23.4370947,29.9747493 C20.877085,29.9747493 18.8017969,32.0729424 18.8017969,34.6611254 C18.8017969,36.0270916 19.3799941,37.2563589 20.3022119,38.1129372 L15.6147021,46.6275036 C13.0641953,46.6387917 11,48.7323818 11,51.313624 C11,53.90188 13.0753242,56 15.6352979,56 C18.1953076,56 20.2706318,53.9018435 20.2706318,51.313624 C20.2706318,49.6868997 19.4506699,48.2538991 18.2059307,47.4136137 L22.6809795,39.28507 C22.9309385,39.3265722 23.1838236,39.3474394 23.4371309,39.3474649 C23.944833,39.3474649 24.4333848,39.2646492 24.8905732,39.1121689 L32.4012119,44.3312762 C31.8373955,45.1074498 31.5041426,46.065438 31.5041426,47.1022602 C31.5041426,49.6904797 33.5794668,51.7886362 36.1394404,51.7886362 C38.6994141,51.7886362 40.7747383,49.6904432 40.7747383,47.1022602 C40.7747383,45.3811033 39.8567842,43.8769039 38.4890127,43.0620805 L43.9905947,32.3300474 C46.2545322,32.0210684 48,30.0599396 48,27.686376 C48,25.0981565 45.9246758,23 43.3647021,23 Z M15.9999816,54 C14.8954509,54 14,53.1045777 14,52 C14,50.8954592 14.8954509,50 15.9999816,50 C17.1045491,50 18,50.8954592 18,52 C18,53.1046145 17.1045491,54 15.9999816,54 Z M22.9999816,37 C21.8954509,37 21,36.1045777 21,35 C21,33.8954592 21.8954509,33 22.9999816,33 C24.1045491,33 25,33.8954592 25,35 C25,36.1045777 24.1045491,37 22.9999816,37 L22.9999816,37 Z M36,50 C34.8954592,50 34,49.1045408 34,48 C34,46.8954592 34.8954592,46 36,46 C37.1045408,46 38,46.8954592 38,48 C38,49.1045408 37.1045408,50 36,50 Z M43,30 C41.8954592,30 41,29.1045408 41,28 C41,26.8954592 41.8954592,26 43,26 C44.1045408,26 45,26.8954223 45,28 C45,29.1045777 44.1045408,30 43,30 L43,30 Z" id="形状" fill="#FFEDCC" fill-rule="nonzero"></path>
                    <path d="M145.205793,11.4423574 C145.751081,11.3547211 146.264167,11.7257206 146.351803,12.271008 C146.433179,12.7773463 146.1191,13.2559191 145.637228,13.3918698 L145.523152,13.4170176 L61.0864139,26.9873301 C60.5411265,27.0749664 60.0280405,26.7039669 59.9404042,26.1586795 C59.8590277,25.6523412 60.1731075,25.1737684 60.6549789,25.0378177 L60.7690549,25.0126699 L145.205793,11.4423574 Z" id="路径-279" fill="#FFFFFF" fill-rule="nonzero"></path>
                    <path d="M145.205793,22.4423574 C145.751081,22.3547211 146.264167,22.7257206 146.351803,23.271008 C146.433179,23.7773463 146.1191,24.2559191 145.637228,24.3918698 L145.523152,24.4170176 L61.0864139,37.9873301 C60.5411265,38.0749664 60.0280405,37.7039669 59.9404042,37.1586795 C59.8590277,36.6523412 60.1731075,36.1737684 60.6549789,36.0378177 L60.7690549,36.0126699 L145.205793,22.4423574 Z" id="路径-279" fill="#FFFFFF" fill-rule="nonzero"></path>
                    <path d="M125.908262,36.0139572 C126.452838,35.9220061 126.968846,36.2889314 127.060797,36.8335078 C127.14618,37.3391859 126.835899,37.8202306 126.35512,37.9599924 L126.241246,37.9860428 L61.0942266,48.9860428 C60.5496502,49.0779939 60.0336427,48.7110686 59.9416916,48.1664922 C59.8563084,47.6608141 60.1665891,47.1797694 60.6473689,47.0400076 L60.7612422,47.0139572 L125.908262,36.0139572 Z" id="路径-279" fill="#FFFFFF" fill-rule="nonzero"></path>
                </g>
                <polygon id="路径-266" fill="#FFDA92" points="370 91.8674255 535.075525 51 535.075525 82.543323 370 119.387777"></polygon>
                <polygon id="路径-266" fill="#DDE9FF" points="368 90.8674255 533.075525 50 533.075525 81.543323 368 118.387777"></polygon>
                <g id="编组-96" transform="translate(368.062023, 95.741143)">
                    <polygon id="路径-267" fill="#FFDA92" points="2 36.5275316 167.546395 2 167.546395 129.549352 2 155.76683"></polygon>
                    <polygon id="路径-267" fill="#DDE9FF" points="1.42108547e-14 34.5275316 165.546395 -5.68434189e-14 165.546395 127.549352 1.42108547e-14 153.76683"></polygon>
                    <g id="编组-95" transform="translate(8.720586, 18.074266)">
                        <polygon id="矩形备份-15" fill="#FFFFFF" points="24.0316206 42.2657429 30.0395257 41.3162884 30.0395257 124.675972 24.0316206 125.625427"></polygon>
                        <polygon id="矩形备份-19" fill="#FFFFFF" points="72.8458498 46.5672351 78.8537549 45.6177806 78.8537549 116.961654 72.8458498 117.911109"></polygon>
                        <polygon id="矩形备份-13" fill="#FFFFFF" points="-7.46069873e-14 76.1030867 6.00790514 75.1536322 6.00790514 128.47379 3.90798505e-14 129.423245"></polygon>
                        <polygon id="矩形备份-16" fill="#FFFFFF" points="48.8142292 63.1318516 54.8221344 62.1823971 54.8221344 120.759472 48.8142292 121.708927"></polygon>
                        <polygon id="矩形备份-20" fill="#FFFFFF" points="97.6284585 15.615162 103.636364 14.6657075 103.636364 113.045154 97.6284585 113.994609"></polygon>
                        <polygon id="矩形备份-23" fill="#FFFFFF" points="134.426877 47.3491601 140.434783 46.3997056 140.434783 107.229745 134.426877 108.1792"></polygon>
                        <polygon id="矩形备份-17" fill="#FFFFFF" points="36.0474308 70.4063595 42.055336 69.456905 42.055336 122.777063 36.0474308 123.726518"></polygon>
                        <polygon id="矩形备份-21" fill="#FFFFFF" points="84.8616601 25.1426343 90.8695652 24.1931798 90.8695652 115.062745 84.8616601 116.0122"></polygon>
                        <polygon id="矩形备份-24" fill="#FFFFFF" points="121.660079 15.5722846 127.667984 14.6228301 127.667984 109.247336 121.660079 110.196791"></polygon>
                        <polygon id="矩形备份-14" fill="#FFFFFF" points="12.0158103 59.1844148 18.0237154 58.2349603 18.0237154 126.574881 12.0158103 127.524336"></polygon>
                        <polygon id="矩形备份-18" fill="#FFFFFF" points="60.8300395 56.7270137 66.8379447 55.7775592 66.8379447 118.860563 60.8300395 119.810018"></polygon>
                        <polygon id="矩形备份-22" fill="#6EA0FD" points="109.644269 0.949454533 115.652174 1.42108547e-14 115.652174 111.146245 109.644269 112.0957"></polygon>
                        <polygon id="矩形备份-25" fill="#FFFFFF" points="146.442688 30.4304882 152.450593 29.4810337 152.450593 105.330836 146.442688 106.280291"></polygon>
                    </g>
                </g>
                <polygon id="路径-267" fill="#FFDA92" points="371 267.527532 536.546395 246 536.546395 333.549352 371 336.76683"></polygon>
                <polygon id="路径-267" fill="#DDE9FF" points="369 265.527532 534.546395 244 534.546395 331.549352 369 334.76683"></polygon>
                <g id="编组-4" transform="translate(379.000000, 265.000000)">
                    <g id="编组-94" transform="translate(0.000000, 0.131139)">
                        <mask id="mask-6" fill="white">
                            <use xlink:href="#path-5"></use>
                        </mask>
                        <use id="矩形" fill="#FFFFFF" xlink:href="#path-5"></use>
                        <polygon id="路径-5" fill="#D9E4FF" mask="url(#mask-6)" points="44.3171225 61.3329164 60.4598789 37.868861 91 67.685786 44 72.868861"></polygon>
                        <polygon id="路径-5" fill="#BCD1FF" mask="url(#mask-6)" points="-5.50697349 64.9162531 20.3102954 30.868861 67 74.8105572 -6 82.868861"></polygon>
                        <path d="M73.7703924,17.0392534 C80.7769318,16.2924798 86.6158131,10.0984571 86.8118987,3.20451646 C87.0079843,-3.68942418 81.4870205,-8.67268768 74.4804811,-7.92591411 C67.4739416,-7.17914054 61.6350604,-0.985117844 61.4389748,5.90882279 C61.2428892,12.8027634 66.7638529,17.7860269 73.7703924,17.0392534 Z" id="椭圆形" fill="#FFE17F" mask="url(#mask-6)"></path>
                    </g>
                    <mask id="mask-8" fill="white">
                        <use xlink:href="#path-7"></use>
                    </mask>
                    <use id="椭圆形" fill="#BED2FF" xlink:href="#path-7"></use>
                    <path d="M97.4737139,13.6140953 C99.0906029,13.4588625 100.438168,12.1670188 100.483586,10.7286817 C100.529003,9.29034449 99.2550733,8.25018289 97.6381844,8.40541568 C96.0212954,8.56064848 94.67373,9.85249218 94.6283127,11.2908293 C94.5828954,12.7291665 95.856825,13.7693281 97.4737139,13.6140953 Z" id="椭圆形" fill="#FFFFFF" mask="url(#mask-8)"></path>
                    <path d="M96.4152074,26.5290214 C99.6489853,26.1668116 102.344116,23.1525096 102.434951,19.7963896 C102.525785,16.4402695 99.9779262,14.0132258 96.7441482,14.3754356 C93.5103703,14.7376455 90.8152394,17.7519474 90.7244049,21.1080675 C90.6335704,24.4641875 93.1814294,26.8912313 96.4152074,26.5290214 Z" id="椭圆形复制" fill="#FFFFFF" mask="url(#mask-8)"></path>
                    <path d="M115.419626,3.19200071 L133.563495,1.24476283 C135.292252,1.05922903 136.654221,2.30598493 136.605538,4.02947009 C136.556854,5.75295525 135.115954,7.30052089 133.387197,7.4860547 L115.243327,9.43329258 C113.51457,9.61882639 112.152601,8.37207048 112.201285,6.64858532 C112.249968,4.92510016 113.690869,3.37753452 115.419626,3.19200071 Z" id="矩形" fill="#D4DFF2"></path>
                    <path d="M114.165707,12.8165987 L152.321637,8.62461658 C153.377106,8.50865795 154.208638,9.28788039 154.178915,10.3650586 C154.149192,11.4422368 153.269469,12.4094654 152.214,12.525424 L114.05807,16.7174061 C113.002601,16.8333648 112.171069,16.0541423 112.200792,14.9769641 C112.230515,13.8997859 113.110238,12.9325573 114.165707,12.8165987 Z" id="矩形" fill="#D4DFF2"></path>
                    <path d="M91.7159597,30.870606 L152.317389,24.2278462 C153.375271,24.1118876 154.208704,24.8911101 154.178913,25.9682883 C154.149122,27.0454665 153.267389,28.012695 152.209506,28.1286537 L91.6080769,34.7714134 C90.5501945,34.887372 89.7167617,34.1081496 89.7465527,33.0309714 C89.7763438,31.9537932 90.6580773,30.9865646 91.7159597,30.870606 Z" id="矩形" fill="#DDEAFF" opacity="0.8"></path>
                    <path d="M91.6861085,40.2325438 L151.369334,33.589784 C152.411188,33.4738254 153.231993,34.2530479 153.202653,35.3302261 C153.173314,36.4074043 152.30494,37.3746328 151.263086,37.4905915 L91.5798602,44.1333512 C90.5380063,44.2493098 89.7172014,43.4700874 89.746541,42.3929092 C89.7758807,41.315731 90.6442546,40.3485024 91.6861085,40.2325438 Z" id="矩形" fill="#DDEAFF" opacity="0.8"></path>
                    <path d="M90.7744263,48.8143201 L117.138785,45.9744911 C118.215319,45.8585325 119.063447,46.637755 119.033131,47.7149332 C119.002815,48.7921114 118.105534,49.7593399 117.029,49.8752986 L90.6646413,52.7151275 C89.5881065,52.8310862 88.7399788,52.0518637 88.7702951,50.9746855 C88.8006113,49.8975073 89.6978915,48.9302787 90.7744263,48.8143201 Z" id="矩形" fill="#DDEAFF" opacity="0.8"></path>
                </g>
                <g id="编组-71" transform="translate(464.667702, 194.000000)">
                    <path d="M90.5,211.417283 C131.411671,211.417283 164.723117,172.19637 165.964467,123.248405 C165.971957,122.945086 139.185967,122.001379 85.6064967,120.417283 C86.8528622,59.8202117 87.2678467,29.5216759 86.8514502,29.5216759 C78.0881314,29.5216759 67.3143878,28.3186532 59.3201802,32.4071006 C32.2635839,46.2445531 15,82.7599988 15,120.417283 C15,170.675196 48.8025014,211.417283 90.5,211.417283 Z" id="椭圆形" fill="#FFBB3C"></path>
                    <g id="编组-110" transform="translate(0.000000, 29.520239)">
                        <mask id="mask-10" fill="white">
                            <use xlink:href="#path-9"></use>
                        </mask>
                        <use id="椭圆形" fill="#FFDA92" xlink:href="#path-9"></use>
                        <path d="M80.5,181.897044 C121.411671,181.897044 154.723117,142.67613 155.964298,93.7281658 C155.9719,93.424847 129.185967,92.4811398 75.6064967,90.8970441 C76.8524081,30.276106 77.2673926,-0.022908698 76.8514502,1.42108547e-14 C36.8483985,2.29556938 5,42.1134466 5,90.8970441 C5,141.154956 38.8025014,181.897044 80.5,181.897044 Z" id="椭圆形" fill="#FFCA65" mask="url(#mask-10)"></path>
                    </g>
                    <path d="M87.1375486,112.177134 L155.213764,75.057924 C160.743134,88.3424225 162.456773,100.715492 160.354682,112.177134 L87.1375486,112.177134 Z" id="路径-262" fill="#C4D6FF"></path>
                    <path d="M155.213764,75.057924 L173.278988,75.057924 C178.730495,89.0905041 180.833826,101.463574 179.588979,112.177134 L160.610526,112.499882 L155.213764,75.057924 Z" id="路径-263" fill="#6EA0FD"></path>
                    <path d="M81.6084181,1.09954028 C126.800046,-4.72759386 159.460233,12.6064236 179.588979,53.1015928 L83.1316923,107.100323 L83.1316923,96.3160157 L160.354682,52.2610875 L81.6084181,1.09954028 Z" id="路径-261" fill="#FFBB3C"></path>
                    <path d="M83.1316923,96.3160157 L160.354682,52.2610875 C147.427075,20.1081788 121.17832,3.05432969 81.6084181,1.09954028 L83.1316923,96.3160157 Z" id="路径-260" fill="#FFCA65"></path>
                </g>
                <path d="M185.090803,261.681908 C184.447671,262.461872 183.805908,263.223823 183.165519,263.967761 L183.9234,264.620154 C184.568433,263.870822 185.214746,263.103468 185.862341,262.318092 L185.090803,261.681908 Z M181.190516,266.209832 C180.512462,266.961547 179.83597,267.69288 179.161044,268.403831 L179.886286,269.092324 C180.567109,268.375162 181.249368,267.637594 181.933068,266.879621 L181.190516,266.209832 Z M177.072096,270.544178 C176.354975,271.258212 175.639654,271.949004 174.926136,272.616555 L175.609329,273.346792 C176.330488,272.672093 177.053269,271.974098 177.777676,271.252807 L177.072096,270.544178 Z M172.713313,274.61736 C171.950207,275.283272 171.189208,275.922307 170.430321,276.534468 L171.05817,277.312803 C171.827194,276.692465 172.598071,276.045136 173.370807,275.37082 L172.713313,274.61736 Z M168.06678,278.359185 C167.252189,278.959702 166.440091,279.52888 165.630492,280.066729 L166.18385,280.899673 C167.007156,280.352718 167.832591,279.774192 168.660166,279.164104 L168.06678,278.359185 Z M163.089374,281.656851 C162.218187,282.168174 161.349966,282.642742 160.484717,283.080573 L160.93622,283.972842 C161.820191,283.525538 162.706634,283.04101 163.595556,282.519278 L163.089374,281.656851 Z M157.811566,284.320362 C156.884405,284.710952 155.960719,285.058775 155.040502,285.363863 L155.355197,286.313056 C156.300509,285.999648 157.248712,285.642593 158.199798,285.241923 L157.811566,284.320362 Z M152.175949,286.178229 C151.204852,286.408069 150.237617,286.589616 149.274205,286.722907 L149.411252,287.713472 C150.406213,287.575816 151.404564,287.388428 152.406267,287.151344 L152.175949,286.178229 Z M146.295185,286.981731 C145.308895,287.016253 144.326499,286.999411 143.347925,286.931213 L143.278402,287.928793 C144.291807,287.999419 145.309085,288.016858 146.330165,287.981119 L146.295185,286.981731 Z M140.364502,286.602093 C139.386041,286.461451 138.41046,286.290002 137.439842,286.088483 L137.236558,287.067602 C138.227323,287.273304 139.223248,287.448329 140.222227,287.59192 L140.364502,286.602093 Z M134.545629,285.394606 C133.589705,285.134397 132.642408,284.845419 131.70619,284.528745 L131.385775,285.476023 C132.341029,285.799135 133.307588,286.093989 134.282979,286.359497 L134.545629,285.394606 Z M128.920227,283.49139 C127.998985,283.116136 127.093379,282.714383 126.206259,282.287668 L125.772787,283.188835 C126.678401,283.624445 127.602761,284.034519 128.542988,284.417506 L128.920227,283.49139 Z M123.553557,280.906271 C122.68262,280.416463 121.836297,279.902952 121.017829,279.367911 L120.470659,280.204932 C121.307807,280.752185 122.173136,281.277228 123.063368,281.777887 L123.553557,280.906271 Z M118.607217,277.66844 C117.807341,277.060205 117.044175,276.431998 116.321286,275.786834 L115.655427,276.532912 C116.398017,277.195658 117.181394,277.840502 118.001927,278.464444 L118.607217,277.66844 Z M114.188614,273.709529 C113.497937,272.972438 112.861397,272.221147 112.282689,271.459791 L111.486566,272.064926 C112.086356,272.854018 112.745084,273.631497 113.458906,274.393287 L114.188614,273.709529 Z M110.626603,268.983623 C110.120172,268.10904 109.693394,267.230211 109.34956,266.352565 L108.418464,266.71734 C108.781099,267.642974 109.229944,268.567244 109.761216,269.484728 L110.626603,268.983623 Z M108.531351,263.528368 C108.350375,262.555066 108.278162,261.59327 108.316693,260.648557 L107.317524,260.607806 C107.275891,261.628576 107.353728,262.665276 107.548202,263.711175 L108.531351,263.528368 Z M108.771477,257.848705 C109.049461,256.862897 109.397651,255.957943 109.811496,255.135872 L108.918293,254.686218 C108.475204,255.566382 108.104045,256.531032 107.809011,257.577303 L108.771477,257.848705 Z M111.428453,252.706422 C112.078266,251.963279 112.806032,251.345559 113.597919,250.85707 L113.072906,250.005975 C112.195503,250.547216 111.391043,251.230034 110.675657,252.048168 L111.428453,252.706422 Z M116.234666,249.765725 C117.15615,249.547854 118.112596,249.474821 119.073881,249.545734 L119.14745,248.548443 C118.085315,248.470091 117.026476,248.550942 116.004575,248.792556 L116.234666,249.765725 Z M121.879984,250.168317 C122.773099,250.504474 123.621625,250.964722 124.396232,251.534669 L124.988881,250.729208 C124.14045,250.104943 123.211032,249.600818 122.232245,249.232415 L121.879984,250.168317 Z M126.505084,253.604976 C127.082531,254.36127 127.555893,255.19714 127.911672,256.097958 L128.841759,255.730618 C128.451993,254.743747 127.933019,253.827334 127.299895,252.99812 L126.505084,253.604976 Z M128.57912,258.810075 C128.685796,259.741175 128.684079,260.711082 128.574817,261.699026 L129.568757,261.808951 C129.68611,260.747844 129.68796,259.702966 129.572621,258.696251 L128.57912,258.810075 Z M127.967503,264.561893 C127.680689,265.477013 127.3079,266.37969 126.855063,267.253373 L127.742894,267.713543 C128.222403,266.7884 128.617446,265.831837 128.921734,264.860965 L127.967503,264.561893 Z M125.276257,269.752881 C124.689646,270.527688 124.037979,271.254552 123.328105,271.923152 L124.013733,272.651105 C124.764417,271.944068 125.453393,271.175589 126.073529,270.356501 L125.276257,269.752881 Z M121.042663,273.736254 C120.234706,274.271803 119.380274,274.738904 118.484601,275.132057 L118.886533,276.047727 C119.8349,275.631443 120.739678,275.13682 121.595155,274.569772 L121.042663,273.736254 Z M115.633981,276.095352 C114.702269,276.32252 113.7401,276.476629 112.750535,276.554954 L112.829439,277.551836 C113.872172,277.469303 114.88717,277.306732 115.87086,277.066891 L115.633981,276.095352 Z M109.894604,276.572936 C109.362433,276.538932 108.824285,276.484383 108.280458,276.409032 C107.88737,276.354567 107.489015,276.266559 107.086117,276.145159 L106.797613,277.102638 C107.249298,277.238738 107.698155,277.337903 108.143213,277.399569 C108.711342,277.478287 109.273998,277.535321 109.830837,277.570901 L109.894604,276.572936 Z M104.468159,274.923082 C103.699754,274.441302 102.925754,273.850371 102.152222,273.154573 L101.483459,273.89805 C102.298437,274.631127 103.118051,275.256884 103.936951,275.770323 L104.468159,274.923082 Z M100.083278,271.040323 C99.4638731,270.330578 98.850317,269.557413 98.2455796,268.724213 L97.4362774,269.311605 C98.0582287,270.168522 98.6903511,270.965083 99.329849,271.697852 L100.083278,271.040323 Z M96.6075483,266.284971 C96.0995607,265.469909 95.6011971,264.613638 95.1141321,263.718638 L94.235776,264.196645 C94.7321159,265.108688 95.240361,265.981937 95.7588832,266.813901 L96.6075483,266.284971 Z M93.7496763,261.047772 C93.3291412,260.171433 92.9197498,259.266377 92.5225374,258.334454 L91.6026139,258.726552 C92.0055965,259.672013 92.4211019,260.590585 92.8481101,261.480413 L93.7496763,261.047772 Z M91.4007112,255.545094 C91.0533394,254.629212 90.7177645,253.692443 90.3946657,252.736199 L89.4472835,253.056303 C89.7742752,254.024069 90.1139728,254.972347 90.465703,255.89972 L91.4007112,255.545094 Z M89.4811033,249.86927 C89.1982671,248.926695 88.9274871,247.968556 88.6692281,246.995951 L87.702721,247.252591 C87.9637066,248.235464 88.2373853,249.20386 88.5232949,250.156677 L89.4811033,249.86927 Z M87.9537105,244.126901 C87.7292893,243.166305 87.5169866,242.19394 87.3171317,241.210671 L86.3371694,241.409854 C86.5389452,242.402574 86.7533091,243.38438 86.9799326,244.354402 L87.9537105,244.126901 Z M86.765618,238.288594 C86.5956302,237.314279 86.4377636,236.331009 86.2922595,235.339483 L85.3028561,235.484675 C85.4496668,236.485106 85.6089614,237.47727 85.7804989,238.460467 L86.765618,238.288594 Z M85.8999774,232.398363 C85.7818264,231.415149 85.6757392,230.425161 85.5818972,229.428967 L84.5863047,229.522752 C84.6809491,230.527464 84.7879481,231.525961 84.9071203,232.517673 L85.8999774,232.398363 Z M85.3384086,226.43861 C85.2703757,225.449092 85.2143453,224.454525 85.1704575,223.455377 L84.1714208,223.49926 C84.2156707,224.506651 84.2721652,225.509455 84.3407638,226.507202 L85.3384086,226.43861 Z M85.07553,220.453232 C85.0562981,219.460806 85.0489842,218.464732 85.0536993,217.465399 L84.0537104,217.460681 C84.0489574,218.46805 84.0563303,219.472156 84.0757177,220.472607 L85.07553,220.453232 Z M85.1036925,214.470279 C85.1321157,213.477547 85.1723665,212.482316 85.2245345,211.484917 L84.2258996,211.432684 C84.1733197,212.437957 84.1327507,213.441059 84.1041021,214.44166 L85.1036925,214.470279 Z M85.4170902,208.483807 C85.4924222,207.492713 85.5794967,206.500083 85.6783882,205.506195 L84.6833019,205.407184 C84.5836403,206.408811 84.4958868,207.409182 84.4199664,208.408017 L85.4170902,208.483807 Z M86.0101028,202.525005 C86.1315157,201.538294 86.2645694,200.550858 86.4093268,199.562939 L85.4198922,199.417959 C85.2740192,200.413492 85.1399391,201.408545 85.0175883,202.402878 L86.0101028,202.525005 Z M86.879475,196.593858 C87.0462804,195.613771 87.2246159,194.633654 87.4145363,193.653712 L86.432804,193.463445 C86.2414327,194.450873 86.0617332,195.438486 85.8936509,196.426076 L86.879475,196.593858 Z M88.0192758,190.713851 C88.2307286,189.742277 88.453597,188.771266 88.6879289,187.800997 L87.7158762,187.566235 C87.479768,188.543858 87.2552086,189.522236 87.0421498,190.50119 L88.0192758,190.713851 Z M89.4268721,184.886929 C89.6821886,183.925997 89.9487926,182.966139 90.226727,182.007514 L89.26628,181.729051 C88.9862555,182.694885 88.7176446,183.661968 88.4604041,184.630141 L89.4268721,184.886929 Z M91.0958918,179.131274 C91.3942196,178.182731 91.7036988,177.235704 92.0243682,176.29033 L91.0773644,175.969108 C90.7543049,176.921528 90.4425162,177.875622 90.1419597,178.831252 L91.0958918,179.131274 Z M93.0009184,173.511697 L93.2605076,172.80425 C93.5212457,172.099857 93.7864181,171.403919 94.0583055,170.710323 L93.1272817,170.345364 C92.8530735,171.04488 92.5856381,171.746758 92.3226862,172.457132 L92.0611669,173.169839 L93.0009184,173.511697 Z M95.182427,167.946732 C95.5691677,167.029577 95.9673502,166.117908 96.3769295,165.211645 L95.4656717,164.799808 C95.0526073,165.713783 94.6510335,166.633217 94.2609966,167.558189 L95.182427,167.946732 Z M97.6442598,162.499784 C98.0774583,161.602649 98.5220387,160.710885 98.9779588,159.824407 L98.0886778,159.367045 C97.6289258,160.260975 97.1806009,161.160249 96.7437471,162.064954 L97.6442598,162.499784 Z M100.383491,157.173796 C100.860525,156.300728 101.348768,155.432851 101.848182,154.570074 L100.982718,154.069104 C100.479195,154.938979 99.9869222,155.814018 99.5059396,156.694312 L100.383491,157.173796 Z M103.375793,152.003666 C103.894716,151.155446 104.424641,150.312209 104.965534,149.473857 L104.125247,148.931715 C103.580037,149.776758 103.045864,150.626754 102.522764,151.481801 L103.375793,152.003666 Z M106.617741,146.978291 C107.176159,146.155981 107.745328,145.338414 108.325222,144.525486 L107.511125,143.944758 C106.926777,144.763929 106.353214,145.587807 105.790463,146.416498 L106.617741,146.978291 Z M110.095018,142.103237 C110.689993,141.307921 111.295423,140.517074 111.911292,139.730586 L111.123961,139.114056 C110.503576,139.906311 109.893679,140.702992 109.294288,141.504212 L110.095018,142.103237 Z M113.791368,137.382659 C114.420946,136.613537 115.060689,135.848598 115.710591,135.087724 L114.950211,134.438245 C114.295792,135.204408 113.651572,135.9747 113.017557,136.749243 L113.791368,137.382659 Z M117.656388,132.85581 C118.316576,132.113693 118.986601,131.375441 119.666469,130.640926 L118.93259,129.961646 C118.248269,130.700971 117.573822,131.444096 116.909243,132.191149 L117.656388,132.85581 Z M121.720507,128.464173 C122.408255,127.749093 123.105499,127.037537 123.812262,126.329368 L123.104453,125.622964 C122.393355,126.335477 121.691798,127.051434 120.99976,127.770974 L121.720507,128.464173 Z M125.951491,124.224203 C126.664583,123.53487 127.386856,122.848706 128.118353,122.165566 L127.435815,121.434715 C126.70014,122.121758 125.973703,122.811877 125.256463,123.50522 L125.951491,124.224203 Z M130.328272,120.136154 C131.065141,119.470636 131.810922,118.807925 132.565681,118.147861 L131.907374,117.395111 C131.14862,118.058669 130.398853,118.724921 129.658008,119.394032 L130.328272,120.136154 Z M134.843674,116.186705 C135.60028,115.545366 136.365523,114.906442 137.139495,114.269753 L136.504204,113.49748 C135.726456,114.137275 134.957441,114.779349 134.197066,115.423882 L134.843674,116.186705 Z M139.468388,112.381646 C140.243743,111.762027 141.027531,111.144416 141.819885,110.528611 L141.206237,109.739032 C140.410338,110.357592 139.623004,110.977997 138.844102,111.60045 L139.468388,112.381646 Z M144.18724,108.713299 C144.978739,108.114379 145.778516,107.517026 146.586753,106.921012 L145.99325,106.11618 C145.181715,106.714626 144.378636,107.314445 143.58383,107.915868 L144.18724,108.713299 Z M149.016744,105.151348 C149.821999,104.572112 150.635444,103.993963 151.457322,103.416636 L150.882517,102.598346 C150.0576,103.177807 149.241111,103.75812 148.432803,104.339552 L149.016744,105.151348 Z M153.903277,101.717913 C154.721145,101.15624 155.547228,100.595126 156.38186,100.034254 L155.8241,99.2042521 C154.986694,99.7669878 154.157828,100.329992 153.337167,100.893584 L153.903277,101.717913 Z M158.880001,98.372938 C159.708357,97.8276985 160.545083,97.282411 161.390639,96.7366869 L160.848369,95.8964826 C160.000313,96.4438201 159.161076,96.9907443 158.330196,97.5376454 L158.880001,98.372938 Z M163.916662,95.121633 C164.753625,94.5914257 165.599303,94.0604556 166.454345,93.528227 L165.925898,92.6792607 C165.068637,93.2128707 164.220726,93.7452425 163.381516,94.2768736 L163.916662,95.121633 Z M168.998493,91.9577104 C169.842513,91.440919 170.695883,90.9224873 171.559552,90.4017499 L171.043209,89.5453683 C170.177607,90.0672707 169.32229,90.5868852 168.476307,91.1048792 L168.998493,91.9577104 Z M173.615853,88.0053959 L174.126799,88.8650083 L175.840174,87.8511397 C176.128203,87.6814491 176.417502,87.5113787 176.708125,87.340893 L176.202139,86.4783512 L174.47056,87.4985071 C174.184462,87.6678007 173.899578,87.8367518 173.615853,88.0053959 Z M178.800998,84.9630752 L179.30247,85.8282489 L181.90023,84.3307765 L181.402798,83.4632736 L179.659321,84.4664971 C179.371784,84.6325449 179.085707,84.7980521 178.800998,84.9630752 Z M184.509221,82.8420418 L186.236813,81.8636289 C186.528716,81.6987654 186.822724,81.5329351 187.119015,81.3660337 L186.628223,80.4947571 L184.015358,81.9725022 L184.509221,82.8420418 Z M189.737904,79.8960549 L192.356345,78.4354098 L191.87016,77.5615539 L189.24968,79.0233365 L189.737904,79.8960549 Z M194.986017,76.9754778 L197.610706,75.523068 L197.126942,74.6478697 L194.50133,76.1007903 L194.986017,76.9754778 Z M200.233262,74.0742914 L202.859505,72.6235353 L202.375764,71.7483241 L199.749824,73.1989131 L200.233262,74.0742914 Z M205.488563,71.1687421 L207.970355,69.7907218 L207.484077,68.9169177 L205.003852,70.2940677 L205.488563,71.1687421 Z" id="路径-353" fill="#FFCA65" fill-rule="nonzero"></path>
            </g>
        </g>
    </g>
</svg>